<?xml version="1.0" encoding="UTF-8" standalone="no"?><!DOCTYPE svg PUBLIC "-//W3C//DTD SVG 1.1//EN" "http://www.w3.org/Graphics/SVG/1.1/DTD/svg11.dtd"><svg width="100%" height="100%" viewBox="0 0 8492 8838" version="1.1" xmlns="http://www.w3.org/2000/svg" xmlns:xlink="http://www.w3.org/1999/xlink" xml:space="preserve" xmlns:serif="http://www.serif.com/" style="fill-rule:evenodd;clip-rule:evenodd;stroke-linejoin:round;stroke-miterlimit:2;"><g><path d="M5594.48,3772.12l475.517,-0l0,-3642.58l-434.364,0l-1261.95,1783.79l-1266.52,-1783.79l-429.793,0l-0,3642.58l475.518,-0l-0,-2758.72l1170.5,1660.59l91.445,-0l1179.65,-1660.59l-0,2758.72Z" style="fill:#fff;stroke:#000;stroke-width:119.25px;"/><path d="M4315.1,6430.51l314.699,-433.798l-1594.99,-2552.38l-355.811,291.887l-160.416,2309.21l-1910.78,-610.113l-352.066,288.811l1783.33,2983.83l389.52,-319.541l-1350.61,-2259.81l1771.81,573.711l74.907,-61.449l153.322,-2152.98l1237.09,1942.62Z" style="fill:#fff;stroke:#000;stroke-width:119.25px;"/><path d="M6318.81,8309l389.52,319.541l1783.34,-2983.83l-355.816,-291.886l-1907.03,613.188l-158.839,-2225.51l-474.65,-3.213l-1280.24,1746.73l314.699,513.526l1039.6,-1589.07l145.829,2146.84l74.907,61.449l1779.3,-567.57l-1350.61,2259.81Z" style="fill:#fff;stroke:#000;stroke-width:119.25px;"/></g></svg>