<?xml version="1.0" encoding="UTF-8" standalone="no"?>
<svg
   width="100%"
   height="100%"
   viewBox="0 0 6209 638"
   version="1.1"
   xml:space="preserve"
   style="fill-rule:evenodd;clip-rule:evenodd;stroke-linejoin:round;stroke-miterlimit:2;"
   id="svg5"
   sodipodi:docname="logo3.svg"
   inkscape:version="1.3.2 (091e20e, 2023-11-25, custom)"
   xmlns:inkscape="http://www.inkscape.org/namespaces/inkscape"
   xmlns:sodipodi="http://sodipodi.sourceforge.net/DTD/sodipodi-0.dtd"
   xmlns="http://www.w3.org/2000/svg"
   xmlns:svg="http://www.w3.org/2000/svg"><defs
     id="defs5" /><sodipodi:namedview
     id="namedview5"
     pagecolor="#ffffff"
     bordercolor="#000000"
     borderopacity="0.25"
     inkscape:showpageshadow="2"
     inkscape:pageopacity="0.0"
     inkscape:pagecheckerboard="0"
     inkscape:deskcolor="#d1d1d1"
     inkscape:zoom="0.21694315"
     inkscape:cx="3104.5"
     inkscape:cy="-48.399777"
     inkscape:window-width="1920"
     inkscape:window-height="1017"
     inkscape:window-x="1420"
     inkscape:window-y="821"
     inkscape:window-maximized="1"
     inkscape:current-layer="svg5" /><g
     id="g5"><g
       transform="matrix(625,0,0,625,1625.62,531.25)"
       id="g1" /><path
       d="m 398.75,531.25 h 65 v -425 H 404.375 L 231.875,314.375 58.75,106.25 H 0 v 425 H 65 V 209.375 l 160,193.75 h 12.5 l 161.25,-193.75 z m 196.87445,0 h 65 v -425 h -65 z m 531.87535,0 h 56.875 v -425 h -65 v 322.5 L 849.37476,106.25 h -56.875 v 425 h 65 V 210 Z M 1583.7502,317.5 1296.8752,193.75 h -5 v 50.625 l 239.375,98.125 -239.375,96.875 v 51.25 h 5 l 286.875,-121.875 z"
       id="text1"
       style="font-size:625px;font-family:PlutoRegular, Pluto;fill:#ffffff"
       aria-label="MIN&gt;" /><g
       transform="matrix(937.5,0,0,937.5,3790.71,637.5)"
       id="g2" /><path
       d="m 2254.15,637.5 h 97.5 V 0 h -89.0625 L 2003.8375,312.1875 1744.15,0 h -88.125 v 637.5 h 97.5 V 154.6875 l 240,290.625 h 18.75 l 241.875,-290.625 z m 210.9367,0 h 99.375 l 58.125,-140.625 h 317.8125 l 56.25,140.625 h 98.4375 L 2841.9617,0 h -112.5 z m 320.625,-540 129.375,325.3125 H 2647.8992 Z M 3759.7733,0 h -110.625 l -195.9375,255 -195,-255 h -112.5 v 7.5 l 238.125,312.1875 -238.125,309.375 V 637.5 h 112.5 l 195,-253.125 194.0625,253.125 h 112.5 v -8.4375 L 3521.6483,319.6875 3759.7733,7.5 Z"
       id="text2"
       style="font-size:937.5px;font-family:PlutoRegular, Pluto;fill:#ffffff"
       aria-label="MAX" /><g
       transform="matrix(625,0,0,625,4093.53,512.399)"
       id="g3" /><path
       d="m 4051.655,298.64899 -286.875,-123.75 h -5 v 50.625 l 239.375,98.125 -239.375,96.875 v 51.25 h 5 l 286.875,-121.875 z"
       id="text3"
       style="font-size:625px;font-family:PlutoRegular, Pluto;fill:#ffffff"
       aria-label="&gt;" /><g
       transform="matrix(625,0,0,625,6244.63,537.5)"
       id="g4" /><g
       id="text4"
       style="font-size:625px;font-family:PlutoRegular, Pluto;fill:#ffffff"
       aria-label="MAGIC"><path
         d="m 4522.76,537.5 h 65 v -425 h -59.375 L 4355.885,320.625 4182.76,112.5 h -58.75 v 425 h 65 V 215.625 l 160,193.75 h 12.5 l 161.25,-193.75 z m 140.6245,0 h 66.25 l 38.75,-93.75 h 211.875 l 37.5,93.75 h 65.625 l -168.75,-425 h -75 z m 213.75,-360 86.25,216.875 h -178.125 z"
         id="path5" /><path
         d="m 5337.1348,299.375 v 56.875 h 132.5 v 96.875 c -27.5,17.5 -68.125,30 -110,30 -92.5,0 -163.125,-58.125 -163.125,-157.5 0,-100.625 70.625,-158.75 160.625,-158.75 53.75,0 95,17.5 130,48.125 l 31.25,-50 c -42.5,-35.625 -94.375,-58.75 -163.125,-58.75 -125.625,0 -226.25,81.25 -226.25,219.375 0,136.875 100.625,218.125 226.25,218.125 65,0 140,-25.625 179.375,-56.25 V 299.375 Z"
         id="path6" /><path
         d="m 5646.51,537.5 h 65 v -425 h -65 z m 530.0004,-111.25 c -32.5,30 -85,56.875 -141.25,56.875 -90.625,0 -151.25,-58.125 -151.25,-157.5 0,-100.625 60.625,-158.75 148.75,-158.75 75,0 113.125,42.5 115,112.5 l 60,-12.5 c -2.5,-99.375 -65,-160.625 -173.75,-160.625 -125.625,0 -217.5,81.25 -217.5,219.375 0,136.875 91.875,218.125 217.5,218.125 70.625,0 136.25,-32.5 174.375,-68.75 z"
         id="path7" /></g></g></svg>
